<svg width="40" height="52" viewBox="0 0 40 52" fill="none" xmlns="http://www.w3.org/2000/svg" xmlns:xlink="http://www.w3.org/1999/xlink">
<path d="M5,4L35,4L35,0L5,0L5,4ZM35,4C35.72,4 36,4.496 36,4.75L40,4.75C40,1.966 37.594,0 35,0L35,4ZM36,4.75L36,46L40,46L40,4.75L36,4.75ZM36,46C36,46.254 35.72,46.75 35,46.75L35,50.75C37.594,50.75 40,48.784 40,46L36,46ZM35,46.75L5,46.75L5,50.75L35,50.75L35,46.75ZM5,46.75C4.28,46.75 4,46.254 4,46L0,46C0,48.784 2.406,50.75 5,50.75L5,46.75ZM4,46L4,4.75L0,4.75L0,46L4,46ZM4,4.75C4,4.496 4.28,4 5,4L5,0C2.406,0 0,1.966 0,4.75L4,4.75Z" fill="#FFFFFF"/>
<path d="M20,21.125L12.5,21.125L12.5,24.125L20,24.125L20,21.125ZM12.5,21.125C11.347,21.125 10.217,21.544 9.365,22.325L11.392,24.536C11.666,24.286 12.062,24.125 12.5,24.125L12.5,21.125ZM9.365,22.325C8.509,23.11 8,24.204 8,25.375L11,25.375C11,25.088 11.123,24.783 11.392,24.536L9.365,22.325ZM8,25.375L8,32.25L11,32.25L11,25.375L8,25.375ZM20,24.125L27.5,24.125L27.5,21.125L20,21.125L20,24.125ZM27.5,24.125C27.938,24.125 28.334,24.286 28.608,24.536L30.635,22.325C29.783,21.544 28.653,21.125 27.5,21.125L27.5,24.125ZM28.608,24.536C28.877,24.783 29,25.088 29,25.375L32,25.375C32,24.204 31.491,23.11 30.635,22.325L28.608,24.536ZM29,25.375L29,32.25L32,32.25L32,25.375L29,25.375ZM18.5,22.625L18.5,41.875L21.5,41.875L21.5,22.625L18.5,22.625ZM20,43.375L27.5,43.375L27.5,40.375L20,40.375L20,43.375ZM27.5,43.375C28.653,43.375 29.783,42.956 30.635,42.175L28.608,39.964C28.334,40.214 27.938,40.375 27.5,40.375L27.5,43.375ZM30.635,42.175C31.491,41.39 32,40.296 32,39.125L29,39.125C29,39.412 28.877,39.717 28.608,39.964L30.635,42.175ZM32,39.125L32,32.25L29,32.25L29,39.125L32,39.125ZM20,40.375L12.5,40.375L12.5,43.375L20,43.375L20,40.375ZM12.5,40.375C12.062,40.375 11.666,40.214 11.392,39.964L9.365,42.175C10.217,42.956 11.347,43.375 12.5,43.375L12.5,40.375ZM11.392,39.964C11.123,39.717 11,39.412 11,39.125L8,39.125C8,40.296 8.509,41.39 9.365,42.175L11.392,39.964ZM11,39.125L11,32.25L8,32.25L8,39.125L11,39.125ZM9.5,33.75L30.5,33.75L30.5,30.75L9.5,30.75L9.5,33.75Z" fill="#FFFFFF"/>
<path d="M11,11.063L29,11.063L29,8.063L11,8.063L11,11.063ZM29,11.063C28.841,11.063 28.665,11.006 28.517,10.87L30.544,8.658C30.114,8.264 29.557,8.063 29,8.063L29,11.063ZM28.517,10.87C28.364,10.729 28.25,10.51 28.25,10.25L31.25,10.25C31.25,9.626 30.978,9.056 30.544,8.658L28.517,10.87ZM28.25,10.25L28.25,15.75L31.25,15.75L31.25,10.25L28.25,10.25ZM28.25,15.75C28.25,15.49 28.364,15.271 28.517,15.13L30.544,17.342C30.978,16.944 31.25,16.374 31.25,15.75L28.25,15.75ZM28.517,15.13C28.665,14.994 28.841,14.938 29,14.938L29,17.938C29.557,17.938 30.114,17.736 30.544,17.342L28.517,15.13ZM29,14.938L11,14.938L11,17.938L29,17.938L29,14.938ZM11,14.938C11.159,14.938 11.335,14.994 11.483,15.13L9.456,17.342C9.886,17.736 10.443,17.938 11,17.938L11,14.938ZM11.483,15.13C11.636,15.271 11.75,15.49 11.75,15.75L8.75,15.75C8.75,16.374 9.022,16.944 9.456,17.342L11.483,15.13ZM11.75,15.75L11.75,10.25L8.75,10.25L8.75,15.75L11.75,15.75ZM11.75,10.25C11.75,10.51 11.636,10.729 11.483,10.87L9.456,8.658C9.022,9.056 8.75,9.626 8.75,10.25L11.75,10.25ZM11.483,10.87C11.335,11.006 11.159,11.063 11,11.063L11,8.063C10.443,8.063 9.886,8.264 9.456,8.658L11.483,10.87Z" fill="#FFFFFF"/>
</svg>
