<svg width="58" height="58" viewBox="0 0 58 58" fill="none" xmlns="http://www.w3.org/2000/svg" xmlns:xlink="http://www.w3.org/1999/xlink">
<path d="M38.169,38.8L19.066,38.8C17.951,38.8 17.36,37.561 18.129,36.753C20.416,34.353 24.609,30.7 28.951,30.7C33.333,30.7 37.153,34.426 39.157,36.824C39.843,37.644 39.238,38.8 38.169,38.8Z" fill="#FFFFFF" stroke="#FFFFFF" stroke-width="2" stroke-miterlimit="3.999327" stroke-linecap="round" stroke-linejoin="round"/>
<path d="M53.5,28C53.5,41.807 42.307,53 28.5,53L28.5,57C44.516,57 57.5,44.016 57.5,28L53.5,28ZM28.5,53C14.693,53 3.5,41.807 3.5,28L-0.5,28C-0.5,44.016 12.484,57 28.5,57L28.5,53ZM3.5,28C3.5,14.193 14.693,3 28.5,3L28.5,-1C12.484,-1 -0.5,11.984 -0.5,28L3.5,28ZM28.5,3C42.307,3 53.5,14.193 53.5,28L57.5,28C57.5,11.984 44.516,-1 28.5,-1L28.5,3Z" fill="#FFFFFF"/>
</svg>
