<svg width="82" height="72" viewBox="0 0 82 72" fill="none" xmlns="http://www.w3.org/2000/svg" xmlns:xlink="http://www.w3.org/1999/xlink">
<path d="M69.778,65L12.222,65L12.222,71L69.778,71L69.778,65ZM12.222,65C9.278,65 7,62.68 7,59.95L1,59.95C1,66.113 6.085,71 12.222,71L12.222,65ZM7,59.95L7,23.726L1,23.726L1,59.95L7,59.95ZM7,23.726C7,20.997 9.278,18.676 12.222,18.676L12.222,12.676C6.085,12.676 1,17.564 1,23.726L7,23.726ZM12.222,18.676L69.778,18.676L69.778,12.676L12.222,12.676L12.222,18.676ZM69.778,18.676C72.722,18.676 75,20.997 75,23.726L81,23.726C81,17.564 75.916,12.676 69.778,12.676L69.778,18.676ZM75,23.726L75,59.95L81,59.95L81,23.726L75,23.726ZM75,59.95C75,62.68 72.722,65 69.778,65L69.778,71C75.916,71 81,66.113 81,59.95L75,59.95Z" fill="#009663"/>
<path d="M59.5,43.851C58.365,43.851 57.444,42.949 57.444,41.838C57.444,40.727 58.365,39.826 59.5,39.826C60.635,39.826 61.556,40.727 61.556,41.838C61.556,42.949 60.635,43.851 59.5,43.851Z" fill="#000000" stroke="#009663" stroke-width="3" stroke-miterlimit="3.999327" stroke-linecap="round" stroke-linejoin="round"/>
<path d="M55.326,2.276L54.568,-0.627L54.568,-0.627L55.326,2.276ZM10.104,14.083L9.346,11.18L9.346,11.18L10.104,14.083ZM68.667,15.676L68.667,10.054L62.667,10.054L62.667,15.676L68.667,15.676ZM68.667,10.054C68.667,2.717 61.607,-2.464 54.568,-0.627L56.084,5.179C59.484,4.291 62.667,6.813 62.667,10.054L68.667,10.054ZM54.568,-0.627L9.346,11.18L10.861,16.985L56.084,5.179L54.568,-0.627ZM9.346,11.18C4.463,12.455 1,16.81 1,21.861L7,21.861C7,19.617 8.545,17.59 10.861,16.985L9.346,11.18ZM1,21.861L1,23.726L7,23.726L7,21.861L1,21.861Z" fill="#009663"/>
</svg>
