<svg width="88" height="88" viewBox="0 0 88 88" fill="none" xmlns="http://www.w3.org/2000/svg" xmlns:xlink="http://www.w3.org/1999/xlink">
<path d="M55.905,80.864L55.905,55.243L49.279,55.243L49.279,80.864L55.905,80.864ZM55.905,55.243C55.905,55.608 55.608,55.905 55.243,55.905L55.243,49.279C51.949,49.279 49.279,51.949 49.279,55.243L55.905,55.243ZM55.243,55.905L80.864,55.905L80.864,49.279L55.243,49.279L55.243,55.905ZM80.864,55.905C80.498,55.905 80.201,55.608 80.201,55.243L86.827,55.243C86.827,51.949 84.157,49.279 80.864,49.279L80.864,55.905ZM80.201,55.243L80.201,80.864L86.827,80.864L86.827,55.243L80.201,55.243ZM80.201,80.864C80.201,80.498 80.498,80.201 80.864,80.201L80.864,86.827C84.157,86.827 86.827,84.157 86.827,80.864L80.201,80.864ZM80.864,80.201L55.243,80.201L55.243,86.827L80.864,86.827L80.864,80.201ZM55.243,80.201C55.608,80.201 55.905,80.498 55.905,80.864L49.279,80.864C49.279,84.157 51.949,86.827 55.243,86.827L55.243,80.201Z" fill="#1870F4"/>
<path d="M7.313,80.864L7.313,55.243L0.687,55.243L0.687,80.864L7.313,80.864ZM7.313,55.243C7.313,55.608 7.016,55.905 6.65,55.905L6.65,49.279C3.357,49.279 0.687,51.949 0.687,55.243L7.313,55.243ZM6.65,55.905L32.272,55.905L32.272,49.279L6.65,49.279L6.65,55.905ZM32.272,55.905C31.906,55.905 31.609,55.608 31.609,55.243L38.235,55.243C38.235,51.949 35.565,49.279 32.272,49.279L32.272,55.905ZM31.609,55.243L31.609,80.864L38.235,80.864L38.235,55.243L31.609,55.243ZM31.609,80.864C31.609,80.498 31.906,80.201 32.272,80.201L32.272,86.827C35.565,86.827 38.235,84.158 38.235,80.864L31.609,80.864ZM32.272,80.201L6.65,80.201L6.65,86.827L32.272,86.827L32.272,80.201ZM6.65,80.201C7.016,80.201 7.313,80.498 7.313,80.864L0.687,80.864C0.687,84.158 3.357,86.827 6.65,86.827L6.65,80.201Z" fill="#1870F4"/>
<path d="M55.905,32.272L55.905,6.65L49.279,6.65L49.279,32.272L55.905,32.272ZM55.905,6.65C55.905,7.016 55.608,7.313 55.243,7.313L55.243,0.687C51.949,0.687 49.279,3.357 49.279,6.65L55.905,6.65ZM55.243,7.313L80.864,7.313L80.864,0.687L55.243,0.687L55.243,7.313ZM80.864,7.313C80.498,7.313 80.201,7.016 80.201,6.65L86.827,6.65C86.827,3.357 84.158,0.687 80.864,0.687L80.864,7.313ZM80.201,6.65L80.201,32.272L86.827,32.272L86.827,6.65L80.201,6.65ZM80.201,32.272C80.201,31.906 80.498,31.609 80.864,31.609L80.864,38.235C84.158,38.235 86.827,35.565 86.827,32.272L80.201,32.272ZM80.864,31.609L55.243,31.609L55.243,38.235L80.864,38.235L80.864,31.609ZM55.243,31.609C55.608,31.609 55.905,31.906 55.905,32.272L49.279,32.272C49.279,35.565 51.949,38.235 55.243,38.235L55.243,31.609Z" fill="#1870F4"/>
<path d="M7.313,32.272L7.313,6.65L0.687,6.65L0.687,32.272L7.313,32.272ZM7.313,6.65C7.313,7.016 7.016,7.313 6.65,7.313L6.65,0.687C3.357,0.687 0.687,3.357 0.687,6.65L7.313,6.65ZM6.65,7.313L32.272,7.313L32.272,0.687L6.65,0.687L6.65,7.313ZM32.272,7.313C31.906,7.313 31.609,7.016 31.609,6.65L38.235,6.65C38.235,3.357 35.565,0.687 32.272,0.687L32.272,7.313ZM31.609,6.65L31.609,32.272L38.235,32.272L38.235,6.65L31.609,6.65ZM31.609,32.272C31.609,31.906 31.906,31.609 32.272,31.609L32.272,38.235C35.565,38.235 38.235,35.565 38.235,32.272L31.609,32.272ZM32.272,31.609L6.65,31.609L6.65,38.235L32.272,38.235L32.272,31.609ZM6.65,31.609C7.016,31.609 7.313,31.906 7.313,32.272L0.687,32.272C0.687,35.565 3.357,38.235 6.65,38.235L6.65,31.609Z" fill="#1870F4"/>
</svg>
