<svg width="88" height="88" viewBox="0 0 88 88" fill="none" xmlns="http://www.w3.org/2000/svg" xmlns:xlink="http://www.w3.org/1999/xlink">
<path d="M74.679,0.687L12.835,0.687L12.835,7.313L74.679,7.313L74.679,0.687ZM12.835,0.687C6.126,0.687 0.687,6.126 0.687,12.835L7.313,12.835C7.313,9.785 9.785,7.313 12.835,7.313L12.835,0.687ZM0.687,12.835L0.687,74.679L7.313,74.679L7.313,12.835L0.687,12.835ZM0.687,74.679C0.687,81.389 6.126,86.827 12.835,86.827L12.835,80.201C9.785,80.201 7.313,77.729 7.313,74.679L0.687,74.679ZM12.835,86.827L74.679,86.827L74.679,80.201L12.835,80.201L12.835,86.827ZM74.679,86.827C81.389,86.827 86.827,81.389 86.827,74.679L80.201,74.679C80.201,77.729 77.729,80.201 74.679,80.201L74.679,86.827ZM86.827,74.679L86.827,12.835L80.201,12.835L80.201,74.679L86.827,74.679ZM86.827,12.835C86.827,6.126 81.389,0.687 74.679,0.687L74.679,7.313C77.729,7.313 80.201,9.785 80.201,12.835L86.827,12.835Z" fill="#1870F4"/>
<line x1="21.67" y1="18.357" x2="65.844" y2="18.357" stroke="#1870F4" stroke-width="3.313" stroke-miterlimit="3.999327" stroke-linecap="round" stroke-linejoin="round"/>
<line x1="21.67" y1="40.444" x2="65.844" y2="40.444" stroke="#1870F4" stroke-width="3.313" stroke-miterlimit="3.999327" stroke-linecap="round" stroke-linejoin="round"/>
<line x1="21.67" y1="62.531" x2="48.175" y2="62.531" stroke="#1870F4" stroke-width="3.313" stroke-miterlimit="3.999327" stroke-linecap="round" stroke-linejoin="round"/>
</svg>
