<svg width="84" height="78" viewBox="0 0 84 78" fill="none" xmlns="http://www.w3.org/2000/svg" xmlns:xlink="http://www.w3.org/1999/xlink">
<line x1="29.523" y1="7.19" x2="83.514" y2="7.19" stroke="#009663" stroke-width="3.681" stroke-miterlimit="3.999327" stroke-linecap="round" stroke-linejoin="round"/>
<path d="M6.603,7.287C5.165,5.849 2.835,5.849 1.397,7.287C-0.041,8.725 -0.041,11.055 1.397,12.493L6.603,7.287ZM7.927,13.817L5.324,16.42C6.761,17.857 9.092,17.857 10.53,16.42L7.927,13.817ZM20.346,6.603C21.784,5.165 21.784,2.835 20.346,1.397C18.909,-0.041 16.578,-0.041 15.14,1.397L20.346,6.603ZM1.397,12.493L5.324,16.42L10.53,11.214L6.603,7.287L1.397,12.493ZM10.53,16.42L20.346,6.603L15.14,1.397L5.324,11.214L10.53,16.42Z" fill="#009663"/>
<path d="M6.603,36.737C5.165,35.299 2.835,35.299 1.397,36.737C-0.041,38.174 -0.041,40.505 1.397,41.943L6.603,36.737ZM7.927,43.266L5.324,45.869C6.014,46.56 6.95,46.948 7.927,46.948C8.903,46.948 9.839,46.56 10.53,45.869L7.927,43.266ZM20.346,36.053C21.784,34.615 21.784,32.284 20.346,30.847C18.909,29.409 16.578,29.409 15.14,30.847L20.346,36.053ZM1.397,41.943L5.324,45.869L10.53,40.663L6.603,36.737L1.397,41.943ZM10.53,45.869L20.346,36.053L15.14,30.847L5.324,40.663L10.53,45.869Z" fill="#009663"/>
<path d="M6.603,66.186C5.165,64.749 2.835,64.749 1.397,66.186C-0.041,67.624 -0.041,69.955 1.397,71.393L6.603,66.186ZM7.927,72.716L5.324,75.319C6.014,76.01 6.95,76.397 7.927,76.397C8.903,76.397 9.839,76.01 10.53,75.319L7.927,72.716ZM20.346,65.503C21.784,64.065 21.784,61.734 20.346,60.297C18.909,58.859 16.578,58.859 15.14,60.297L20.346,65.503ZM1.397,71.393L5.324,75.319L10.53,70.113L6.603,66.186L1.397,71.393ZM10.53,75.319L20.346,65.503L15.14,60.297L5.324,70.113L10.53,75.319Z" fill="#009663"/>
<line x1="29.523" y1="36.64" x2="83.514" y2="36.64" stroke="#009663" stroke-width="3.681" stroke-miterlimit="3.999327" stroke-linecap="round" stroke-linejoin="round"/>
<line x1="29.523" y1="66.09" x2="83.514" y2="66.09" stroke="#009663" stroke-width="3.681" stroke-miterlimit="3.999327" stroke-linecap="round" stroke-linejoin="round"/>
</svg>
