<svg width="72" height="88" viewBox="0 0 72 88" fill="none" xmlns="http://www.w3.org/2000/svg" xmlns:xlink="http://www.w3.org/1999/xlink">
<path d="M0.273,75.111C0.273,77.17 1.941,78.838 4,78.838C6.059,78.838 7.727,77.17 7.727,75.111L0.273,75.111ZM64.273,64.952C64.273,67.011 65.942,68.68 68,68.68C70.058,68.68 71.727,67.011 71.727,64.952L64.273,64.952ZM7.727,75.111L7.727,12.889L0.273,12.889L0.273,75.111L7.727,75.111ZM7.727,12.889C7.727,9.659 10,7.727 12,7.727L12,0.273C5.164,0.273 0.273,6.3 0.273,12.889L7.727,12.889ZM12,7.727L65.6,7.727L65.6,0.273L12,0.273L12,7.727ZM65.6,7.727C65.098,7.727 64.724,7.493 64.527,7.274C64.335,7.062 64.273,6.837 64.273,6.667L71.727,6.667C71.727,3.515 69.344,0.273 65.6,0.273L65.6,7.727ZM64.273,6.667L64.273,64.952L71.727,64.952L71.727,6.667L64.273,6.667Z" fill="#009663"/>
<path d="M23.727,4C23.727,1.941 22.059,0.273 20,0.273C17.941,0.273 16.273,1.941 16.273,4L23.727,4ZM20,39.556L16.273,39.556C16.273,40.95 17.052,42.228 18.291,42.868C19.531,43.507 21.023,43.401 22.16,42.593L20,39.556ZM30,32.444L32.16,29.407C30.867,28.487 29.133,28.487 27.84,29.407L30,32.444ZM40,39.556L37.84,42.593C38.977,43.401 40.469,43.507 41.709,42.868C42.949,42.228 43.727,40.95 43.727,39.556L40,39.556ZM43.727,4C43.727,1.941 42.058,0.273 40,0.273C37.941,0.273 36.273,1.941 36.273,4L43.727,4ZM16.273,4L16.273,39.556L23.727,39.556L23.727,4L16.273,4ZM22.16,42.593L32.16,35.482L27.84,29.407L17.84,36.518L22.16,42.593ZM27.84,35.482L37.84,42.593L42.16,36.518L32.16,29.407L27.84,35.482ZM43.727,39.556L43.727,4L36.273,4L36.273,39.556L43.727,39.556Z" fill="#009663"/>
<line x1="12" y1="62.495" x2="68" y2="62.495" stroke="#009663" stroke-width="3.727" stroke-miterlimit="3.999327" stroke-linecap="round"/>
<line x1="12" y1="80.273" x2="68" y2="80.273" stroke="#009663" stroke-width="3.727" stroke-miterlimit="3.999327" stroke-linecap="round"/>
<path d="M12,87.727C14.059,87.727 15.727,86.059 15.727,84C15.727,81.942 14.059,80.273 12,80.273L12,87.727ZM12,69.949C14.059,69.949 15.727,68.281 15.727,66.222C15.727,64.164 14.059,62.495 12,62.495L12,69.949ZM12,80.273C10,80.273 7.727,78.341 7.727,75.111L0.273,75.111C0.273,81.7 5.164,87.727 12,87.727L12,80.273ZM7.727,75.111C7.727,71.881 10,69.949 12,69.949L12,62.495C5.164,62.495 0.273,68.522 0.273,75.111L7.727,75.111Z" fill="#009663"/>
</svg>
