<svg width="78" height="88" viewBox="0 0 78 88" fill="none" xmlns="http://www.w3.org/2000/svg" xmlns:xlink="http://www.w3.org/1999/xlink">
<path d="M66.861,43.92C66.861,45.873 68.444,47.456 70.397,47.456C72.349,47.456 73.932,45.873 73.932,43.92L66.861,43.92ZM69.668,17.271L72.119,14.723L72.118,14.723L69.668,17.271ZM56.601,4.702L54.15,7.249L54.151,7.249L56.601,4.702ZM33.049,87.376C35.001,87.376 36.584,85.793 36.584,83.841C36.584,81.888 35.001,80.305 33.049,80.305L33.049,87.376ZM73.932,43.92L73.932,18.964L66.861,18.964L66.861,43.92L73.932,43.92ZM73.932,18.964C73.932,17.346 73.263,15.824 72.119,14.723L67.216,19.818C67.006,19.616 66.861,19.312 66.861,18.964L73.932,18.964ZM72.118,14.723L59.052,2.154L54.151,7.249L67.217,19.818L72.118,14.723ZM59.053,2.154C57.913,1.058 56.396,0.465 54.841,0.465L54.841,7.535C54.607,7.535 54.356,7.447 54.15,7.249L59.053,2.154ZM54.841,0.465L6.49,0.465L6.49,7.535L54.841,7.535L54.841,0.465ZM6.49,0.465C3.293,0.465 0.465,2.992 0.465,6.395L7.535,6.395C7.535,7.153 6.937,7.535 6.49,7.535L6.49,0.465ZM0.465,6.395L0.465,81.445L7.535,81.445L7.535,6.395L0.465,6.395ZM0.465,81.445C0.465,84.849 3.293,87.376 6.49,87.376L6.49,80.305C6.937,80.305 7.535,80.688 7.535,81.445L0.465,81.445ZM6.49,87.376L33.049,87.376L33.049,80.305L6.49,80.305L6.49,87.376Z" fill="#1870F4"/>
<path d="M20.599,32.401C18.647,32.401 17.064,33.984 17.064,35.936C17.064,37.889 18.647,39.472 20.599,39.472L20.599,32.401ZM53.798,39.472C55.75,39.472 57.333,37.889 57.333,35.936C57.333,33.984 55.75,32.401 53.798,32.401L53.798,39.472ZM20.599,16.433C18.647,16.433 17.064,18.016 17.064,19.968C17.064,21.921 18.647,23.504 20.599,23.504L20.599,16.433ZM37.198,23.504C39.151,23.504 40.734,21.921 40.734,19.968C40.734,18.016 39.151,16.433 37.198,16.433L37.198,23.504ZM20.599,48.369C18.647,48.369 17.064,49.952 17.064,51.904C17.064,53.857 18.647,55.44 20.599,55.44L20.599,48.369ZM33.049,55.44C35.001,55.44 36.584,53.857 36.584,51.904C36.584,49.952 35.001,48.369 33.049,48.369L33.049,55.44ZM20.599,39.472L53.798,39.472L53.798,32.401L20.599,32.401L20.599,39.472ZM20.599,23.504L37.198,23.504L37.198,16.433L20.599,16.433L20.599,23.504ZM20.599,55.44L33.049,55.44L33.049,48.369L20.599,48.369L20.599,55.44Z" fill="#1870F4"/>
<path d="M61.907,63.639L59.456,61.091L59.456,61.091L61.907,63.639ZM66.056,59.647L63.605,57.099L63.605,57.099L66.056,59.647ZM72.637,65.977L75.088,68.525L75.088,68.525L72.637,65.977ZM68.487,69.969L70.938,72.517L70.938,72.517L68.487,69.969ZM49.494,75.579L51.945,78.127L51.945,78.127L49.494,75.579ZM48.328,77.787L51.818,78.353L51.818,78.352L48.328,77.787ZM47.321,84L43.831,83.434C43.651,84.549 44.013,85.682 44.807,86.485C45.6,87.288 46.729,87.664 47.846,87.496L47.321,84ZM53.78,83.032L54.304,86.528L54.305,86.528L53.78,83.032ZM56.074,81.91L53.624,79.362L53.623,79.362L56.074,81.91ZM64.358,66.186L68.507,62.194L63.605,57.099L59.456,61.091L64.358,66.186ZM68.507,62.194C68.956,61.763 69.738,61.763 70.186,62.194L75.088,57.099C71.902,54.034 66.791,54.034 63.605,57.099L68.507,62.194ZM70.186,62.194C70.389,62.39 70.465,62.61 70.465,62.812C70.465,63.014 70.389,63.234 70.186,63.429L75.088,68.525C78.351,65.386 78.351,60.238 75.088,57.099L70.186,62.194ZM70.186,63.429L66.036,67.421L70.938,72.517L75.088,68.525L70.186,63.429ZM59.456,61.091L47.043,73.031L51.945,78.127L64.358,66.186L59.456,61.091ZM47.043,73.031C45.881,74.15 45.099,75.614 44.839,77.222L51.818,78.352C51.829,78.288 51.863,78.206 51.945,78.127L47.043,73.031ZM44.839,77.221L43.831,83.434L50.811,84.566L51.818,78.353L44.839,77.221ZM47.846,87.496L54.304,86.528L53.255,79.535L46.797,80.504L47.846,87.496ZM54.305,86.528C55.885,86.291 57.365,85.574 58.525,84.458L53.623,79.362C53.54,79.443 53.413,79.512 53.255,79.535L54.305,86.528ZM58.525,84.458L70.938,72.517L66.036,67.421L53.624,79.362L58.525,84.458ZM59.456,66.186L66.036,72.517L70.938,67.421L64.358,61.091L59.456,66.186Z" fill="#1870F4"/>
<path d="M57.333,4C57.333,2.047 55.75,0.465 53.797,0.465C51.845,0.465 50.262,2.047 50.262,4L57.333,4ZM70.397,23.504C72.349,23.504 73.932,21.921 73.932,19.968C73.932,18.016 72.349,16.433 70.397,16.433L70.397,23.504ZM50.262,4L50.262,17.573L57.333,17.573L57.333,4L50.262,4ZM50.262,17.573C50.262,20.976 53.09,23.504 56.287,23.504L56.287,16.433C56.734,16.433 57.333,16.815 57.333,17.573L50.262,17.573ZM56.287,23.504L70.397,23.504L70.397,16.433L56.287,16.433L56.287,23.504Z" fill="#1870F4"/>
</svg>
