<svg width="14" height="20" viewBox="0 0 14 20" fill="none" xmlns="http://www.w3.org/2000/svg" xmlns:xlink="http://www.w3.org/1999/xlink">
<path d="M2.532,-0.635C2.135,-1.02 1.502,-1.01 1.118,-0.613C0.733,-0.217 0.743,0.416 1.14,0.801L2.532,-0.635ZM11.105,9.072L11.801,9.789C11.995,9.601 12.105,9.342 12.105,9.072C12.105,8.801 11.995,8.542 11.801,8.354L11.105,9.072ZM1.14,17.343C0.743,17.727 0.733,18.36 1.118,18.757C1.502,19.153 2.135,19.163 2.532,18.778L1.14,17.343ZM1.14,0.801L10.409,9.789L11.801,8.354L2.532,-0.635L1.14,0.801ZM10.409,8.354L1.14,17.343L2.532,18.778L11.801,9.789L10.409,8.354Z" transform="rotate(2.084 6.47 9.072)" fill="#868484"/>
</svg>
