<svg width="26" height="38" viewBox="0 0 26 38" fill="none" xmlns="http://www.w3.org/2000/svg" xmlns:xlink="http://www.w3.org/1999/xlink">
<path d="M25.237,3.572C26.105,2.889 26.255,1.631 25.572,0.763C24.889,-0.105 23.631,-0.255 22.763,0.428L25.237,3.572ZM2.873,18.625L1.636,17.053C1.154,17.432 0.873,18.012 0.873,18.625C0.873,19.238 1.154,19.818 1.636,20.197L2.873,18.625ZM22.763,36.822C23.631,37.505 24.889,37.355 25.572,36.487C26.255,35.619 26.105,34.361 25.237,33.678L22.763,36.822ZM22.763,0.428L1.636,17.053L4.11,20.197L25.237,3.572L22.763,0.428ZM1.636,20.197L22.763,36.822L25.237,33.678L4.11,17.053L1.636,20.197Z" fill="#FFFFFF"/>
</svg>
